<svg width="16" height="16" viewBox="0 0 16 16" fill="none" xmlns="http://www.w3.org/2000/svg">
<path d="M4.09375 1.35947C2.00625 2.10635 0.2625 2.74385 0.21875 2.7751C0.11875 2.84697 0 3.08135 0 3.20322C0.003125 3.34072 0.103125 3.54385 0.209375 3.61885C0.259375 3.65635 1.09688 3.96885 2.06562 4.31572C3.03437 4.65947 3.86563 4.95947 3.9125 4.9751L3.99688 5.00635L4.00625 5.92197L4.01562 6.8376L4.1125 6.95635C4.47813 7.4126 5.74375 7.67822 7.6875 7.70947C9.90625 7.74697 11.4781 7.46572 11.8875 6.95635L11.9844 6.8376L11.9938 5.92197L12.0031 5.00635L12.3531 4.88135C12.5469 4.8126 12.7281 4.74697 12.7594 4.73447C12.8094 4.7126 12.8125 4.74385 12.8125 5.09072C12.8125 5.53447 12.8594 5.66572 13.0531 5.78447C13.1562 5.8501 13.2219 5.85947 13.5156 5.86885C14.0312 5.8876 14.2281 5.8126 14.3469 5.5501C14.3938 5.44385 14.4062 5.34385 14.4062 4.95322C14.4062 4.54385 14.3938 4.4251 14.3406 4.22197C14.3313 4.19072 14.5188 4.10947 15 3.9376C15.3688 3.80322 15.7188 3.6626 15.775 3.6251C15.8906 3.5501 15.9969 3.34697 16 3.20322C16 3.08135 15.8813 2.84697 15.7812 2.7751C15.6625 2.6876 8.19375 0.0250969 8.03125 0.0125966C7.90938 9.67979e-05 7.3875 0.178221 4.09375 1.35947ZM10.5875 1.45635C12.0094 1.96572 13.2094 2.39697 13.2594 2.4126L13.3438 2.44385V3.10635V3.77197L13.2656 3.80635C13.2219 3.82822 13.1188 3.90635 13.0344 3.98447C12.9094 4.10322 12.8219 4.14697 12.4469 4.27822L12.0031 4.43447L11.9938 4.00635C11.9844 3.6126 11.9781 3.56885 11.9094 3.47197C11.5625 2.98447 10.0969 2.68447 8.04688 2.67822C5.9375 2.6751 4.44688 2.9751 4.0875 3.47822C4.02187 3.56885 4.0125 3.62197 4 4.00322L3.98438 4.43135L2.27188 3.81885C1.33125 3.48447 0.56875 3.20322 0.575 3.19385C0.584375 3.18447 7.88438 0.565722 7.99375 0.534472C7.99688 0.531347 9.16563 0.946971 10.5875 1.45635ZM14.7 2.9251C15.0594 3.05322 15.3719 3.16885 15.3969 3.18447C15.4281 3.2001 15.1844 3.3001 14.6813 3.47822C14.2625 3.62822 13.9125 3.7501 13.9 3.7501C13.8844 3.7501 13.875 3.49697 13.875 3.1876V2.6251L13.9625 2.65947C14.0094 2.67822 14.3406 2.79697 14.7 2.9251ZM8.71875 3.21885C9.95625 3.27822 11.0063 3.46572 11.3688 3.6876L11.4688 3.7501V4.90635C11.4688 5.54072 11.4594 6.0626 11.45 6.0626C11.4375 6.0626 11.3375 6.02822 11.2219 5.9876C10.4531 5.70947 8.70625 5.54697 7.275 5.62197C6.15625 5.67822 5.275 5.80947 4.77813 5.9876C4.6625 6.02822 4.5625 6.0626 4.55 6.0626C4.54063 6.0626 4.53125 5.54072 4.53125 4.90635V3.7501L4.63438 3.6876C4.97813 3.4751 6.06875 3.2751 7.1875 3.22197C7.9375 3.18447 8.01562 3.18447 8.71875 3.21885ZM13.7812 4.34385C13.8688 4.43135 13.8781 4.5001 13.8688 4.9376L13.8594 5.32822L13.6031 5.3376L13.3438 5.34697V4.8876C13.3438 4.45635 13.3469 4.42197 13.4125 4.35322C13.5 4.25947 13.6906 4.25322 13.7812 4.34385ZM8.82812 6.15635C9.69375 6.20322 10.3875 6.3001 10.9062 6.44385C11.1281 6.50322 11.4375 6.6376 11.4375 6.6751C11.4375 6.7126 11.0906 6.84072 10.7844 6.91885C10.0563 7.1001 9.16875 7.1876 8 7.1876C7.55938 7.1876 7.01562 7.17197 6.79375 7.15635C5.9375 7.0876 5.09375 6.9251 4.71875 6.75947L4.54688 6.68447L4.62188 6.62822C4.76875 6.51572 5.38125 6.35322 5.96875 6.26885C6.83437 6.14385 7.8625 6.10322 8.82812 6.15635Z" fill="black"/>
<path d="M0.624926 8.32504C0.203051 8.56567 -0.0344489 9.81255 0.00930108 11.5313C0.0311761 12.3376 0.0655511 12.6907 0.171801 13.1626C0.262426 13.5719 0.396801 13.8626 0.562426 14.0126C0.712426 14.1469 0.728051 14.1469 1.29055 14.0626C2.71868 13.8501 4.16243 13.7188 5.8968 13.6407L6.34368 13.6188L6.29993 13.7251C6.27493 13.7813 6.14993 14.0844 6.01868 14.3969C5.8843 14.7188 5.78118 15.0126 5.78118 15.0688C5.7843 15.2188 5.8843 15.4188 5.99993 15.5001C6.1343 15.5969 6.38118 15.6188 6.54368 15.5501C6.6093 15.5219 6.68118 15.5001 6.70305 15.5001C6.7218 15.5001 6.7718 15.5719 6.81555 15.6594C6.9843 16.0219 7.41555 16.1094 7.67805 15.8344C7.74368 15.7688 7.85618 15.5376 8.01555 15.1563C8.14993 14.8376 8.2593 14.5751 8.26243 14.5719C8.26555 14.5657 8.38118 14.8313 8.51555 15.1594C8.71868 15.6501 8.7843 15.7751 8.88118 15.8594C9.15305 16.1063 9.54055 16.0188 9.7093 15.6719C9.75618 15.5782 9.8093 15.5001 9.83118 15.5001C9.84993 15.5001 9.9218 15.5219 9.98743 15.5501C10.1499 15.6188 10.3968 15.5969 10.5312 15.5001C10.6468 15.4188 10.7468 15.2188 10.7499 15.0719C10.7499 15.0126 10.6343 14.6907 10.4812 14.3251C10.3343 13.9719 10.2218 13.6751 10.2312 13.6626C10.2531 13.6407 11.4187 13.7063 12.1562 13.7688C12.8781 13.8282 13.9187 13.9469 14.5874 14.0469C15.2906 14.1469 15.2874 14.1501 15.4374 14.0126C15.6031 13.8626 15.7374 13.5719 15.8281 13.1626C15.9343 12.6907 15.9687 12.3376 15.9906 11.5313C16.0312 9.95317 15.8437 8.8063 15.4749 8.41254C15.3531 8.28442 15.2531 8.26254 14.9374 8.30629C14.7906 8.32504 14.4124 8.37504 14.0937 8.41879C11.8374 8.72192 9.16868 8.8563 6.72805 8.78442C4.76868 8.72817 3.48743 8.62817 1.81243 8.40317C0.909301 8.27817 0.724926 8.26567 0.624926 8.32504ZM15.1999 8.93442C15.2656 9.10317 15.3624 9.59692 15.4124 10.0157C15.4624 10.4563 15.4624 11.9719 15.4093 12.3907C15.3437 12.9282 15.2343 13.4438 15.1624 13.5501C15.1468 13.5751 14.9937 13.5657 14.6249 13.5126C13.2218 13.3126 11.1343 13.1251 10.3156 13.1251C9.95305 13.1251 9.94368 13.1157 10.0312 12.8719C10.1249 12.5969 10.1499 12.1188 10.0812 11.8501C10.0093 11.5626 9.9093 11.3532 9.7468 11.1376L9.60305 10.9469L9.58118 10.5907C9.5593 10.2157 9.48743 9.65942 9.4343 9.4563C9.41555 9.39067 9.40618 9.33442 9.41243 9.32817C9.41868 9.32505 9.8093 9.30317 10.2812 9.28442C11.7093 9.22192 13.3343 9.07505 14.5781 8.89067C14.8531 8.85317 15.0937 8.8188 15.1124 8.81567C15.1343 8.81255 15.1718 8.8688 15.1999 8.93442ZM2.64055 9.0438C3.76555 9.1688 4.52805 9.22505 6.06555 9.30005L6.4593 9.3188L6.52805 9.66567C6.62805 10.1875 6.65305 10.4407 6.65618 10.9001C6.65618 11.2438 6.6468 11.3344 6.5968 11.4313C6.4593 11.7094 6.4218 11.8813 6.4218 12.2657C6.4218 12.5782 6.4343 12.6751 6.4968 12.8532C6.5343 12.9719 6.56243 13.0719 6.5593 13.0751C6.55305 13.0813 6.1593 13.1001 5.68743 13.1219C4.37805 13.1782 3.37493 13.2626 2.03743 13.4251C1.6718 13.4688 1.36555 13.5001 1.3593 13.4938C1.35618 13.4907 1.37805 13.3782 1.4093 13.2501C1.5218 12.8188 1.56555 12.3501 1.5843 11.4844C1.60618 10.3907 1.54055 9.5688 1.39055 9.07505C1.36555 8.99067 1.34368 8.91255 1.34368 8.90317C1.34368 8.8938 1.47493 8.90317 1.6343 8.92505C1.79055 8.94692 2.2468 9.00005 2.64055 9.0438ZM0.915551 9.43755C1.04368 10.0688 1.0718 10.4719 1.05305 11.4282C1.04055 12.1188 1.02493 12.3751 0.971801 12.6719C0.912426 13.0219 0.824926 13.4063 0.799926 13.4313C0.784301 13.4469 0.668676 12.9282 0.603051 12.5469C0.524926 12.0907 0.524926 10.3094 0.603051 9.85942C0.693676 9.32817 0.787426 8.9563 0.812426 9.00317C0.828051 9.02817 0.871801 9.22192 0.915551 9.43755ZM8.85618 9.34692C8.88743 9.37817 9.00305 10.0407 9.0218 10.2875L9.04055 10.5625L8.85618 10.4938C8.70618 10.4407 8.5968 10.4282 8.28118 10.425C7.84993 10.4219 7.61243 10.4782 7.33743 10.6532L7.19993 10.7407L7.16243 10.3313C7.14055 10.1063 7.0968 9.79067 7.06555 9.63442C7.0343 9.47505 7.01243 9.34067 7.01868 9.33755C7.03118 9.32192 8.84368 9.33442 8.85618 9.34692ZM8.66243 11.0001C9.51555 11.2626 9.86555 12.2969 9.35305 13.0313C8.93743 13.6219 8.0968 13.7688 7.49993 13.3532C7.16555 13.1188 6.9718 12.7657 6.94368 12.3376C6.88743 11.4188 7.77493 10.725 8.66243 11.0001ZM7.40305 13.9188C7.48118 13.9594 7.6218 14.0157 7.71243 14.0438C7.79993 14.0751 7.87493 14.1032 7.87493 14.1063C7.87493 14.1344 7.33743 15.3938 7.31555 15.4157C7.30305 15.4282 7.25305 15.3376 7.19993 15.2188C7.04368 14.8407 6.94368 14.8001 6.57805 14.9626C6.45618 15.0157 6.35618 15.0469 6.34993 15.0344C6.3468 15.0219 6.45305 14.7469 6.59055 14.4219C6.72493 14.0938 6.8593 13.7751 6.88743 13.7094L6.9343 13.5907L7.09993 13.7188C7.18743 13.7907 7.32493 13.8813 7.40305 13.9188ZM9.9218 14.3594C10.0812 14.7376 10.2062 15.0501 10.2031 15.0532C10.1999 15.0594 10.0843 15.0157 9.94368 14.9563C9.56868 14.8032 9.49368 14.8376 9.32493 15.2251C9.27805 15.3407 9.22493 15.4251 9.21243 15.4126C9.1968 15.3969 8.99993 14.9376 8.66555 14.1376C8.6593 14.1157 8.71868 14.0782 8.81868 14.0469C9.04368 13.9719 9.30305 13.8344 9.45305 13.7032C9.54368 13.6251 9.5843 13.6063 9.60305 13.6344C9.61868 13.6563 9.76243 13.9813 9.9218 14.3594Z" fill="black"/>
</svg>
