<svg width="20" height="19" viewBox="0 0 20 19" fill="none" xmlns="http://www.w3.org/2000/svg">
<path d="M1.4021 0.916443V0.416443H0.293148L1.0274 1.2475L1.4021 0.916443ZM8.74764 9.23046L8.37294 9.56151L8.74764 9.23046ZM9.11126 16.6924H8.61126V17.0074L8.89541 17.1434L9.11126 16.6924ZM10.8887 17.5431L10.6728 17.9941L11.3887 18.3367V17.5431H10.8887ZM11.2523 9.23046L10.8776 8.8994L11.2523 9.23046ZM18.5978 0.916443L18.9725 1.2475L19.7068 0.416443H18.5978V0.916443ZM1.0274 1.2475L8.37294 9.56151L9.12234 8.8994L1.7768 0.585388L1.0274 1.2475ZM8.37294 9.56151C8.52729 9.73621 8.61126 9.95859 8.61126 10.1875H9.61126C9.61126 9.71288 9.43695 9.25549 9.12234 8.8994L8.37294 9.56151ZM8.61126 10.1875V16.6924H9.61126V10.1875H8.61126ZM8.89541 17.1434L10.6728 17.9941L11.1045 17.092L9.3271 16.2414L8.89541 17.1434ZM11.3887 17.5431V10.1875H10.3887V17.5431H11.3887ZM11.3887 10.1875C11.3887 9.95859 11.4726 9.73621 11.627 9.56151L10.8776 8.8994C10.563 9.25549 10.3887 9.71288 10.3887 10.1875H11.3887ZM11.627 9.56151L18.9725 1.2475L18.2231 0.585388L10.8776 8.8994L11.627 9.56151ZM18.5978 0.416443H1.4021V1.41644H18.5978V0.416443Z" fill="#989898"/>
</svg>
