<svg width="19" height="19" viewBox="0 0 19 19" fill="none" xmlns="http://www.w3.org/2000/svg">
<path d="M17.55 8.79399C17.5495 8.79358 17.5491 8.79303 17.5487 8.79262L10.2061 1.4503C9.89309 1.13719 9.47698 0.964844 9.03437 0.964844C8.59175 0.964844 8.17565 1.13719 7.86254 1.4503L0.523793 8.78891C0.521321 8.79138 0.518711 8.79399 0.516377 8.79646C-0.126325 9.44287 -0.125226 10.4917 0.519535 11.1364C0.814107 11.4311 1.20302 11.6017 1.61899 11.6197C1.63602 11.6213 1.65305 11.6222 1.67022 11.6222H1.96273V17.0255C1.96273 18.0949 2.83285 18.9649 3.90223 18.9649H6.77489C7.06616 18.9649 7.30223 18.7287 7.30223 18.4375V14.2012C7.30223 13.7133 7.69925 13.3164 8.18718 13.3164H9.88155C10.3695 13.3164 10.7664 13.7133 10.7664 14.2012V18.4375C10.7664 18.7287 11.0024 18.9649 11.2937 18.9649H14.1664C15.2359 18.9649 16.1059 18.0949 16.1059 17.0255V11.6222H16.3772C16.8197 11.6222 17.2358 11.4498 17.5491 11.1366C18.1945 10.4908 18.1948 9.44013 17.55 8.79399ZM16.8032 10.3909C16.6894 10.5047 16.538 10.5675 16.3772 10.5675H15.5785C15.2872 10.5675 15.0512 10.8035 15.0512 11.0948V17.0255C15.0512 17.5133 14.6543 17.9102 14.1664 17.9102H11.8211V14.2012C11.8211 13.1318 10.9511 12.2617 9.88155 12.2617H8.18718C7.11766 12.2617 6.24754 13.1318 6.24754 14.2012V17.9102H3.90223C3.41444 17.9102 3.01742 17.5133 3.01742 17.0255V11.0948C3.01742 10.8035 2.78135 10.5675 2.49007 10.5675H1.7051C1.69686 10.5669 1.68876 10.5665 1.68038 10.5664C1.52328 10.5636 1.37592 10.5013 1.26551 10.3907C1.03068 10.1559 1.03068 9.7737 1.26551 9.53873C1.26565 9.53873 1.26565 9.53859 1.26578 9.53845L1.2662 9.53804L8.60851 2.196C8.72222 2.08216 8.87342 2.01953 9.03437 2.01953C9.19518 2.01953 9.34638 2.08216 9.46023 2.196L16.8009 9.53653C16.802 9.53763 16.8032 9.53873 16.8043 9.53983C17.0379 9.77507 17.0375 10.1564 16.8032 10.3909Z" fill="#989898"/>
</svg>
