<svg width="24" height="24" viewBox="0 0 24 24" fill="none" xmlns="http://www.w3.org/2000/svg">
<path d="M2.7891 1.40625C1.75785 1.54688 0.810974 2.22187 0.356286 3.14531C-0.0280885 3.93281 -0.00465103 3.39844 0.00941147 11.6016L0.023474 18.8672L0.150036 19.2422C0.435974 20.0812 1.0266 20.7844 1.7391 21.1359C2.5266 21.5203 1.87972 21.4875 9.39379 21.5062L16.0875 21.5203L16.3782 21.7219C18.811 23.4516 22.1953 22.575 23.5078 19.8797C24.2532 18.3516 24.1219 16.4953 23.1703 15.0562C22.4953 14.0391 21.1922 13.2187 19.9125 13.0078L19.7391 12.9797L19.725 8.47031L19.711 3.96094L19.5891 3.62344C19.1907 2.53594 18.45 1.81875 17.3907 1.49063L17.0391 1.38281L10.0547 1.37812C6.21097 1.37344 2.94379 1.3875 2.7891 1.40625ZM17.0485 2.69531C17.7282 2.89688 18.2766 3.45469 18.45 4.12031C18.5063 4.33594 18.5157 5.02031 18.5157 8.05781V11.7375L16.7719 9.99844C15.075 8.31094 15.0188 8.25469 14.8078 8.22656C14.6532 8.20312 14.55 8.2125 14.4563 8.26406C14.3813 8.30625 13.1625 9.49687 11.7422 10.9172L9.1641 13.5L7.35941 11.7C5.68597 10.0312 5.54066 9.89531 5.35785 9.86719C5.2266 9.84844 5.12347 9.85781 5.02972 9.90469C4.95941 9.94687 4.06879 10.8094 3.06097 11.8266L1.21879 13.6734V9.02812C1.21879 3.99375 1.2141 4.11563 1.47191 3.65156C1.7016 3.23906 2.20316 2.84531 2.69535 2.69062C2.84535 2.64375 4.35941 2.62969 9.84847 2.62969C15.9141 2.625 16.8422 2.63437 17.0485 2.69531ZM17.6625 13.1766C17.1797 13.3266 16.8797 13.4766 16.3125 13.8516C14.836 14.8266 14.0063 16.7859 14.3203 18.5672C14.4 19.0406 14.6719 19.8562 14.836 20.1375L14.9578 20.3437L9.03754 20.3297C4.85629 20.3203 3.04222 20.2969 2.86879 20.2594C2.08129 20.0906 1.49066 19.5328 1.2891 18.7734C1.23285 18.5531 1.21879 18.1922 1.21879 16.9687V15.4453L3.21566 13.4156C4.31254 12.3047 5.23597 11.3906 5.2641 11.3906C5.29691 11.3906 6.11254 12.1828 7.07816 13.1484C8.95316 15.0234 8.98129 15.0469 9.32816 14.9531C9.45941 14.9156 10.0266 14.3719 12.0938 12.3047L14.6953 9.70312L16.3735 11.3812L18.0469 13.0547L17.6625 13.1766ZM19.6547 14.2266C20.5407 14.325 21.5063 14.9109 22.0547 15.6797C23.1047 17.1562 22.9172 19.1156 21.6141 20.3906C20.9438 21.0422 20.1047 21.375 19.125 21.375C18.1125 21.375 17.2266 20.9906 16.4953 20.2312C15.8532 19.5703 15.5766 18.9141 15.5297 17.9531C15.4782 16.8562 15.8016 16.0359 16.5938 15.2297C17.1891 14.625 17.8688 14.2969 18.7032 14.2031C19.05 14.1656 19.111 14.1703 19.6547 14.2266Z" fill="white"/>
<path d="M8.72344 6.65624C8.22656 6.75937 7.77187 7.1203 7.55625 7.58437C7.44844 7.81405 7.42969 7.91249 7.42969 8.27343C7.42969 8.63906 7.44844 8.72812 7.56094 8.96249C7.84219 9.53437 8.32969 9.85312 8.98125 9.88124C9.56718 9.90937 9.99843 9.70781 10.3594 9.24374C10.6594 8.85468 10.7625 8.2828 10.6172 7.79999C10.3828 7.00312 9.53437 6.49218 8.72344 6.65624Z" fill="white"/>
<path d="M18.8907 15.1922C18.7501 15.2484 17.2688 16.7063 17.1751 16.8844C16.9595 17.2922 17.2407 17.7656 17.6954 17.7656C17.9157 17.7656 18.0188 17.7094 18.2954 17.4469L18.5157 17.2313V18.5813C18.5157 19.8563 18.5204 19.9453 18.6095 20.086C18.7923 20.386 19.1954 20.4656 19.472 20.2641C19.7204 20.086 19.7345 19.9922 19.7345 18.5578V17.2313L19.9876 17.4797C20.2032 17.6953 20.2735 17.7328 20.461 17.7563C20.9626 17.8125 21.2767 17.3766 21.0751 16.9078C20.9954 16.7203 19.5235 15.2578 19.3454 15.1922C19.186 15.1313 19.0501 15.1313 18.8907 15.1922Z" fill="white"/>
</svg>
