<svg width="32" height="32" viewBox="0 0 32 32" fill="none" xmlns="http://www.w3.org/2000/svg">
<path d="M3.71872 1.87499C2.34372 2.06249 1.08122 2.96249 0.474967 4.19374C-0.0375328 5.24374 -0.00628276 4.53124 0.0124672 15.4687L0.0312172 25.1562L0.199967 25.6562C0.581217 26.775 1.36872 27.7125 2.31872 28.1812C3.36872 28.6937 2.50622 28.65 12.525 28.675L21.45 28.6937L21.8375 28.9625C25.0812 31.2687 29.5937 30.1 31.3437 26.5062C32.3375 24.4687 32.1625 21.9937 30.8937 20.075C29.9937 18.7187 28.2562 17.625 26.55 17.3437L26.3187 17.3062L26.3 11.2937L26.2812 5.28124L26.1187 4.83124C25.5875 3.38124 24.6 2.42499 23.1875 1.98749L22.7187 1.84374L13.4062 1.83749C8.28122 1.83124 3.92497 1.84999 3.71872 1.87499ZM22.7312 3.59374C23.6375 3.86249 24.3687 4.60624 24.6 5.49374C24.675 5.78124 24.6875 6.69374 24.6875 10.7437V15.65L22.3625 13.3312C20.1 11.0812 20.025 11.0062 19.7437 10.9687C19.5375 10.9375 19.4 10.95 19.275 11.0187C19.175 11.075 17.55 12.6625 15.6562 14.5562L12.2187 18L9.81247 15.6C7.58122 13.375 7.38747 13.1937 7.14372 13.1562C6.96872 13.1312 6.83122 13.1437 6.70622 13.2062C6.61247 13.2625 5.42497 14.4125 4.08122 15.7687L1.62497 18.2312V12.0375C1.62497 5.32499 1.61872 5.48749 1.96247 4.86874C2.26872 4.31874 2.93747 3.79374 3.59372 3.58749C3.79372 3.52499 5.81247 3.50624 13.1312 3.50624C21.2187 3.49999 22.4562 3.51249 22.7312 3.59374ZM23.55 17.5687C22.9062 17.7687 22.5062 17.9687 21.75 18.4687C19.7812 19.7687 18.675 22.3812 19.0937 24.7562C19.2 25.3875 19.5625 26.475 19.7812 26.85L19.9437 27.125L12.05 27.1062C6.47497 27.0937 4.05622 27.0625 3.82497 27.0125C2.77497 26.7875 1.98747 26.0437 1.71872 25.0312C1.64372 24.7375 1.62497 24.2562 1.62497 22.625V20.5937L4.28747 17.8875C5.74997 16.4062 6.98122 15.1875 7.01872 15.1875C7.06247 15.1875 8.14997 16.2437 9.43747 17.5312C11.9375 20.0312 11.975 20.0625 12.4375 19.9375C12.6125 19.8875 13.3687 19.1625 16.125 16.4062L19.5937 12.9375L21.8312 15.175L24.0625 17.4062L23.55 17.5687ZM26.2062 18.9687C27.3875 19.1 28.675 19.8812 29.4062 20.9062C30.8062 22.875 30.5562 25.4875 28.8187 27.1875C27.925 28.0562 26.8062 28.5 25.5 28.5C24.15 28.5 22.9687 27.9875 21.9937 26.975C21.1375 26.0937 20.7687 25.2187 20.7062 23.9375C20.6375 22.475 21.0687 21.3812 22.125 20.3062C22.9187 19.5 23.825 19.0625 24.9375 18.9375C25.4 18.8875 25.4812 18.8937 26.2062 18.9687Z" fill="white"/>
<path d="M11.6312 8.875C10.9687 9.0125 10.3625 9.49375 10.075 10.1125C9.93125 10.4187 9.90625 10.55 9.90625 11.0313C9.90625 11.5188 9.93125 11.6375 10.0812 11.95C10.4562 12.7125 11.1062 13.1375 11.975 13.175C12.7562 13.2125 13.3312 12.9438 13.8125 12.325C14.2125 11.8063 14.35 11.0438 14.1562 10.4C13.8437 9.3375 12.7125 8.65625 11.6312 8.875Z" fill="white"/>
<path d="M25.1874 20.2562C24.9999 20.3312 23.0249 22.275 22.8999 22.5125C22.6124 23.0562 22.9874 23.6875 23.5937 23.6875C23.8874 23.6875 24.0249 23.6125 24.3937 23.2625L24.6874 22.975V24.775C24.6874 26.475 24.6937 26.5937 24.8124 26.7812C25.0562 27.1812 25.5937 27.2875 25.9624 27.0187C26.2937 26.7812 26.3124 26.6562 26.3124 24.7437V22.975L26.6499 23.3062C26.9374 23.5937 27.0312 23.6437 27.2812 23.675C27.9499 23.75 28.3687 23.1687 28.0999 22.5437C27.9937 22.2937 26.0312 20.3437 25.7937 20.2562C25.5812 20.175 25.3999 20.175 25.1874 20.2562Z" fill="white"/>
</svg>
