<svg width="14" height="16" viewBox="0 0 14 16" fill="none" xmlns="http://www.w3.org/2000/svg">
<path opacity="0.5" fill-rule="evenodd" clip-rule="evenodd" d="M13.5191 14.2973C13.5191 14.1853 13.4887 14.0957 13.428 14.0285L12.1767 12.632C12.1159 12.5649 12.035 12.5313 11.9338 12.5313H11.5088C11.9945 11.9042 12.374 11.1987 12.6472 10.4149C12.9204 9.63101 13.057 8.81356 13.057 7.96252C13.057 6.68596 12.7737 5.51578 12.207 4.45198C11.6403 3.38818 10.8764 2.54274 9.91506 1.91566C8.95375 1.28858 7.89631 0.975037 6.74274 0.975037C5.58917 0.975037 4.53173 1.28858 3.57043 1.91566C2.60912 2.54274 1.84513 3.38818 1.27847 4.45198C0.711799 5.51578 0.428467 6.68596 0.428467 7.96252C0.428467 9.23908 0.711799 10.4093 1.27847 11.4731C1.84513 12.5369 2.60912 13.3823 3.57043 14.0094C4.53173 14.6365 5.58917 14.95 6.74274 14.95C7.51179 14.95 8.25048 14.7988 8.95881 14.4965C9.66714 14.1941 10.3046 13.7742 10.8713 13.2367V13.707C10.8713 13.7966 10.9017 13.8862 10.9624 13.9758L12.2137 15.3387C12.2744 15.4282 12.3554 15.473 12.4566 15.473C12.5578 15.473 12.6488 15.4282 12.7298 15.3387L13.428 14.5996C13.4887 14.51 13.5191 14.4092 13.5191 14.2973ZM9.17131 12.6152C8.42251 13.0967 7.61298 13.3375 6.74275 13.3375C5.87251 13.3375 5.06299 13.0967 4.31418 12.6152C3.56537 12.1337 2.97341 11.4786 2.53829 10.65C2.10318 9.82132 1.88562 8.92549 1.88562 7.96247C1.88562 6.99945 2.10318 6.10362 2.53829 5.27498C2.97341 4.44633 3.56537 3.79126 4.31418 3.30975C5.06299 2.82824 5.87251 2.58748 6.74275 2.58748C7.61298 2.58748 8.42251 2.82824 9.17131 3.30975C9.92012 3.79126 10.5121 4.44633 10.9472 5.27498C11.3823 6.10362 11.5999 6.99945 11.5999 7.96247C11.5999 8.92549 11.3823 9.82132 10.9472 10.65C10.5121 11.4786 9.92012 12.1337 9.17131 12.6152Z" fill="#989898"/>
</svg>
