<svg width="15" height="19" viewBox="0 0 15 19" fill="none" xmlns="http://www.w3.org/2000/svg">
<path d="M0.406333 16.7255C0.543805 16.8005 3.81522 18.562 7.44981 18.562C11.3875 18.562 14.3786 16.7946 14.504 16.7193C14.5484 16.6927 14.5852 16.655 14.6107 16.6099C14.6362 16.5648 14.6496 16.5139 14.6496 16.4621C14.6496 14.0399 13.9069 11.8235 12.5583 10.2207C11.6149 9.09946 10.4312 8.33523 9.12564 7.98342C9.9248 7.60311 10.5708 6.96228 10.9576 6.16622C11.3444 5.37017 11.4489 4.46623 11.2539 3.60293C11.059 2.73963 10.5762 1.9683 9.88488 1.41569C9.19357 0.863078 8.33485 0.562042 7.44981 0.562042C6.56477 0.562042 5.70605 0.863078 5.01474 1.41569C4.32343 1.9683 3.84064 2.73963 3.6457 3.60293C3.45075 4.46623 3.55525 5.37017 3.94202 6.16622C4.32878 6.96228 4.97482 7.60311 5.77398 7.98342C4.46845 8.33523 3.28476 9.09958 2.34136 10.2207C0.992743 11.8235 0.25 14.0399 0.25 16.4621C0.25 16.516 0.264518 16.5689 0.292028 16.6152C0.319537 16.6616 0.359023 16.6996 0.406333 16.7255ZM4.1499 4.46241C4.1499 3.80975 4.34343 3.17174 4.70603 2.62907C5.06863 2.08641 5.58401 1.66345 6.18699 1.41369C6.78997 1.16392 7.45347 1.09857 8.09359 1.2259C8.73371 1.35323 9.3217 1.66752 9.7832 2.12902C10.2447 2.59052 10.559 3.17851 10.6863 3.81863C10.8136 4.45875 10.7483 5.12225 10.4985 5.72523C10.2488 6.32821 9.82581 6.84359 9.28315 7.20619C8.74048 7.56879 8.10247 7.76232 7.44981 7.76232C6.57493 7.76133 5.73616 7.41334 5.11752 6.7947C4.49888 6.17607 4.15089 5.3373 4.1499 4.46241ZM2.80042 10.607C4.01865 9.15946 5.66966 8.36231 7.44981 8.36231C9.22997 8.36231 10.881 9.15946 12.0992 10.607C13.3247 12.0633 14.0138 14.0749 14.0483 16.2871C13.4063 16.6346 10.7388 17.9621 7.44981 17.9621C4.40827 17.9621 1.54372 16.6268 0.851484 16.28C0.887483 14.0705 1.57623 12.0618 2.80042 10.607Z" fill="#989898"/>
</svg>
